  0
SECTION
  2
HEADER
  9
$ACADVER
  1
AC1009
  9
$MEASUREMENT
 70
     1
  0
ENDSEC
  0
SECTION
  2
ENTITIES
  0
LWPOLYLINE
  8
0
 62
7
 90
9
 70
1
 10
21.000000
 20
8.698438
 10
20.501562
 20
8.698438
 10
20.501562
 20
7.601562
 10
21.498438
 20
7.601562
 10
21.498438
 20
8.698438
 10
20.501562
 20
8.698438
 10
20.501562
 20
7.601562
 10
21.498438
 20
7.601562
 10
21.498438
 20
8.698438
  0
LWPOLYLINE
  8
0
 62
7
 90
9
 70
1
 10
21.000000
 20
10.398438
 10
20.501562
 20
10.398438
 10
20.501562
 20
9.301562
 10
21.498438
 20
9.301562
 10
21.498438
 20
10.398438
 10
20.501562
 20
10.398438
 10
20.501562
 20
9.301562
 10
21.498438
 20
9.301562
 10
21.498438
 20
10.398438
  0
LWPOLYLINE
  8
0
 62
7
 90
9
 70
1
 10
9.000000
 20
19.698437
 10
8.501563
 20
19.698437
 10
8.501563
 20
18.601562
 10
9.498437
 20
18.601562
 10
9.498437
 20
19.698437
 10
8.501563
 20
19.698437
 10
8.501563
 20
18.601562
 10
9.498437
 20
18.601562
 10
9.498437
 20
19.698437
  0
LWPOLYLINE
  8
0
 62
7
 90
9
 70
1
 10
9.000000
 20
21.398438
 10
8.501563
 20
21.398438
 10
8.501563
 20
20.301563
 10
9.498437
 20
20.301563
 10
9.498437
 20
21.398438
 10
8.501563
 20
21.398438
 10
8.501563
 20
20.301563
 10
9.498437
 20
20.301563
 10
9.498437
 20
21.398438
  0
LWPOLYLINE
  8
0
 62
7
 90
9
 70
1
 10
19.000000
 20
20.301563
 10
19.498438
 20
20.301563
 10
19.498438
 20
21.398438
 10
18.501562
 20
21.398438
 10
18.501562
 20
20.301563
 10
19.498438
 20
20.301563
 10
19.498438
 20
21.398438
 10
18.501562
 20
21.398438
 10
18.501562
 20
20.301563
  0
LWPOLYLINE
  8
0
 62
7
 90
9
 70
1
 10
19.000000
 20
18.601562
 10
19.498438
 20
18.601562
 10
19.498438
 20
19.698437
 10
18.501562
 20
19.698437
 10
18.501562
 20
18.601562
 10
19.498438
 20
18.601562
 10
19.498438
 20
19.698437
 10
18.501562
 20
19.698437
 10
18.501562
 20
18.601562
  0
LWPOLYLINE
  8
0
 62
7
 90
9
 70
1
 10
9.698438
 20
23.000000
 10
9.698438
 20
23.498438
 10
8.601562
 20
23.498438
 10
8.601562
 20
22.501562
 10
9.698438
 20
22.501562
 10
9.698438
 20
23.498438
 10
8.601562
 20
23.498438
 10
8.601562
 20
22.501562
 10
9.698438
 20
22.501562
  0
LWPOLYLINE
  8
0
 62
7
 90
9
 70
1
 10
11.398438
 20
23.000000
 10
11.398438
 20
23.498438
 10
10.301562
 20
23.498438
 10
10.301562
 20
22.501562
 10
11.398438
 20
22.501562
 10
11.398438
 20
23.498438
 10
10.301562
 20
23.498438
 10
10.301562
 20
22.501562
 10
11.398438
 20
22.501562
  0
LWPOLYLINE
  8
0
 62
7
 90
9
 70
1
 10
14.301562
 20
23.000000
 10
14.301562
 20
22.501562
 10
15.398438
 20
22.501562
 10
15.398438
 20
23.498438
 10
14.301562
 20
23.498438
 10
14.301562
 20
22.501562
 10
15.398438
 20
22.501562
 10
15.398438
 20
23.498438
 10
14.301562
 20
23.498438
  0
LWPOLYLINE
  8
0
 62
7
 90
9
 70
1
 10
12.601562
 20
23.000000
 10
12.601562
 20
22.501562
 10
13.698438
 20
22.501562
 10
13.698438
 20
23.498438
 10
12.601562
 20
23.498438
 10
12.601562
 20
22.501562
 10
13.698438
 20
22.501562
 10
13.698438
 20
23.498438
 10
12.601562
 20
23.498438
  0
LWPOLYLINE
  8
0
 62
7
 90
9
 70
1
 10
14.301562
 20
17.000000
 10
14.301562
 20
16.501562
 10
15.398438
 20
16.501562
 10
15.398438
 20
17.498438
 10
14.301562
 20
17.498438
 10
14.301562
 20
16.501562
 10
15.398438
 20
16.501562
 10
15.398438
 20
17.498438
 10
14.301562
 20
17.498438
  0
LWPOLYLINE
  8
0
 62
7
 90
9
 70
1
 10
12.601562
 20
17.000000
 10
12.601562
 20
16.501562
 10
13.698438
 20
16.501562
 10
13.698438
 20
17.498438
 10
12.601562
 20
17.498438
 10
12.601562
 20
16.501562
 10
13.698438
 20
16.501562
 10
13.698438
 20
17.498438
 10
12.601562
 20
17.498438
  0
LWPOLYLINE
  8
0
 62
7
 90
9
 70
1
 10
13.623437
 20
25.500000
 10
13.623437
 20
25.748438
 10
12.876563
 20
25.748438
 10
12.876563
 20
25.251562
 10
13.623437
 20
25.251562
 10
13.623437
 20
25.748438
 10
12.876563
 20
25.748438
 10
12.876563
 20
25.251562
 10
13.623437
 20
25.251562
  0
LWPOLYLINE
  8
0
 62
7
 90
9
 70
1
 10
13.623437
 20
26.500000
 10
13.623437
 20
26.748438
 10
12.876563
 20
26.748438
 10
12.876563
 20
26.251562
 10
13.623437
 20
26.251562
 10
13.623437
 20
26.748438
 10
12.876563
 20
26.748438
 10
12.876563
 20
26.251562
 10
13.623437
 20
26.251562
  0
LWPOLYLINE
  8
0
 62
7
 90
9
 70
1
 10
15.123437
 20
25.500000
 10
15.123437
 20
25.748438
 10
14.376563
 20
25.748438
 10
14.376563
 20
25.251562
 10
15.123437
 20
25.251562
 10
15.123437
 20
25.748438
 10
14.376563
 20
25.748438
 10
14.376563
 20
25.251562
 10
15.123437
 20
25.251562
  0
LWPOLYLINE
  8
0
 62
7
 90
9
 70
1
 10
15.123437
 20
26.500000
 10
15.123437
 20
26.748438
 10
14.376563
 20
26.748438
 10
14.376563
 20
26.251562
 10
15.123437
 20
26.251562
 10
15.123437
 20
26.748438
 10
14.376563
 20
26.748438
 10
14.376563
 20
26.251562
 10
15.123437
 20
26.251562
  0
LWPOLYLINE
  8
0
 62
7
 90
9
 70
1
 10
10.698438
 20
26.000000
 10
10.698438
 20
26.498438
 10
9.601562
 20
26.498438
 10
9.601562
 20
25.501562
 10
10.698438
 20
25.501562
 10
10.698438
 20
26.498438
 10
9.601562
 20
26.498438
 10
9.601562
 20
25.501562
 10
10.698438
 20
25.501562
  0
LWPOLYLINE
  8
0
 62
7
 90
9
 70
1
 10
12.398438
 20
26.000000
 10
12.398438
 20
26.498438
 10
11.301562
 20
26.498438
 10
11.301562
 20
25.501562
 10
12.398438
 20
25.501562
 10
12.398438
 20
26.498438
 10
11.301562
 20
26.498438
 10
11.301562
 20
25.501562
 10
12.398438
 20
25.501562
  0
LWPOLYLINE
  8
0
 62
7
 90
9
 70
1
 10
17.301563
 20
26.000000
 10
17.301563
 20
25.501562
 10
18.398438
 20
25.501562
 10
18.398438
 20
26.498438
 10
17.301563
 20
26.498438
 10
17.301563
 20
25.501562
 10
18.398438
 20
25.501562
 10
18.398438
 20
26.498438
 10
17.301563
 20
26.498438
  0
LWPOLYLINE
  8
0
 62
7
 90
9
 70
1
 10
15.601562
 20
26.000000
 10
15.601562
 20
25.501562
 10
16.698437
 20
25.501562
 10
16.698437
 20
26.498438
 10
15.601562
 20
26.498438
 10
15.601562
 20
25.501562
 10
16.698437
 20
25.501562
 10
16.698437
 20
26.498438
 10
15.601562
 20
26.498438
  0
LWPOLYLINE
  8
0
 62
7
 90
9
 70
1
 10
19.301563
 20
24.000000
 10
19.301563
 20
23.501562
 10
20.398438
 20
23.501562
 10
20.398438
 20
24.498438
 10
19.301563
 20
24.498438
 10
19.301563
 20
23.501562
 10
20.398438
 20
23.501562
 10
20.398438
 20
24.498438
 10
19.301563
 20
24.498438
  0
LWPOLYLINE
  8
0
 62
7
 90
9
 70
1
 10
17.601562
 20
24.000000
 10
17.601562
 20
23.501562
 10
18.698437
 20
23.501562
 10
18.698437
 20
24.498438
 10
17.601562
 20
24.498438
 10
17.601562
 20
23.501562
 10
18.698437
 20
23.501562
 10
18.698437
 20
24.498438
 10
17.601562
 20
24.498438
  0
LWPOLYLINE
  8
0
 62
7
 90
9
 70
1
 10
15.851562
 20
13.150000
 10
15.851562
 20
12.651563
 10
17.298437
 20
12.651563
 10
17.298437
 20
13.648438
 10
15.851562
 20
13.648438
 10
15.851562
 20
12.651563
 10
17.298437
 20
12.651563
 10
17.298437
 20
13.648438
 10
15.851562
 20
13.648438
  0
LWPOLYLINE
  8
0
 62
7
 90
9
 70
1
 10
10.701563
 20
13.150000
 10
10.701563
 20
12.651563
 10
12.148438
 20
12.651563
 10
12.148438
 20
13.648438
 10
10.701563
 20
13.648438
 10
10.701563
 20
12.651563
 10
12.148438
 20
12.651563
 10
12.148438
 20
13.648438
 10
10.701563
 20
13.648438
  0
LWPOLYLINE
  8
0
 62
7
 90
9
 70
1
 10
15.851562
 20
14.850000
 10
15.851562
 20
14.351562
 10
17.298437
 20
14.351562
 10
17.298437
 20
15.348437
 10
15.851562
 20
15.348437
 10
15.851562
 20
14.351562
 10
17.298437
 20
14.351562
 10
17.298437
 20
15.348437
 10
15.851562
 20
15.348437
  0
LWPOLYLINE
  8
0
 62
7
 90
9
 70
1
 10
10.701563
 20
14.850000
 10
10.701563
 20
14.351562
 10
12.148438
 20
14.351562
 10
12.148438
 20
15.348437
 10
10.701563
 20
15.348437
 10
10.701563
 20
14.351562
 10
12.148438
 20
14.351562
 10
12.148438
 20
15.348437
 10
10.701563
 20
15.348437
  0
LWPOLYLINE
  8
0
 62
7
 90
9
 70
1
 10
26.850000
 20
15.701562
 10
27.148438
 20
15.701562
 10
27.148438
 20
16.698438
 10
26.551563
 20
16.698438
 10
26.551563
 20
15.701562
 10
27.148438
 20
15.701562
 10
27.148438
 20
16.698438
 10
26.551563
 20
16.698438
 10
26.551563
 20
15.701562
  0
LWPOLYLINE
  8
0
 62
7
 90
9
 70
1
 10
26.850000
 20
11.301563
 10
27.148438
 20
11.301563
 10
27.148438
 20
12.298438
 10
26.551563
 20
12.298438
 10
26.551563
 20
11.301563
 10
27.148438
 20
11.301563
 10
27.148438
 20
12.298438
 10
26.551563
 20
12.298438
 10
26.551563
 20
11.301563
  0
LWPOLYLINE
  8
0
 62
7
 90
9
 70
1
 10
23.150000
 20
15.701562
 10
23.448437
 20
15.701562
 10
23.448437
 20
16.698438
 10
22.851562
 20
16.698438
 10
22.851562
 20
15.701562
 10
23.448437
 20
15.701562
 10
23.448437
 20
16.698438
 10
22.851562
 20
16.698438
 10
22.851562
 20
15.701562
  0
LWPOLYLINE
  8
0
 62
7
 90
9
 70
1
 10
23.150000
 20
11.301563
 10
23.448437
 20
11.301563
 10
23.448437
 20
12.298438
 10
22.851562
 20
12.298438
 10
22.851562
 20
11.301563
 10
23.448437
 20
11.301563
 10
23.448437
 20
12.298438
 10
22.851562
 20
12.298438
 10
22.851562
 20
11.301563
  0
LWPOLYLINE
  8
0
 62
7
 90
9
 70
1
 10
4.850000
 20
15.701562
 10
5.148438
 20
15.701562
 10
5.148438
 20
16.698438
 10
4.551562
 20
16.698438
 10
4.551562
 20
15.701562
 10
5.148438
 20
15.701562
 10
5.148438
 20
16.698438
 10
4.551562
 20
16.698438
 10
4.551562
 20
15.701562
  0
LWPOLYLINE
  8
0
 62
7
 90
9
 70
1
 10
4.850000
 20
11.301563
 10
5.148438
 20
11.301563
 10
5.148438
 20
12.298438
 10
4.551562
 20
12.298438
 10
4.551562
 20
11.301563
 10
5.148438
 20
11.301563
 10
5.148438
 20
12.298438
 10
4.551562
 20
12.298438
 10
4.551562
 20
11.301563
  0
LWPOLYLINE
  8
0
 62
7
 90
9
 70
1
 10
1.150000
 20
15.701562
 10
1.448437
 20
15.701562
 10
1.448437
 20
16.698438
 10
0.851562
 20
16.698438
 10
0.851562
 20
15.701562
 10
1.448437
 20
15.701562
 10
1.448437
 20
16.698438
 10
0.851562
 20
16.698438
 10
0.851562
 20
15.701562
  0
LWPOLYLINE
  8
0
 62
7
 90
9
 70
1
 10
1.150000
 20
11.301563
 10
1.448437
 20
11.301563
 10
1.448437
 20
12.298438
 10
0.851562
 20
12.298438
 10
0.851562
 20
11.301563
 10
1.448437
 20
11.301563
 10
1.448437
 20
12.298438
 10
0.851562
 20
12.298438
 10
0.851562
 20
11.301563
  0
LWPOLYLINE
  8
0
 62
7
 90
9
 70
1
 10
8.806563
 20
3.390000
 10
8.806563
 20
3.186562
 10
9.713437
 20
3.186562
 10
9.713437
 20
3.593438
 10
8.806563
 20
3.593438
 10
8.806563
 20
3.186562
 10
9.713437
 20
3.186562
 10
9.713437
 20
3.593438
 10
8.806563
 20
3.593438
  0
LWPOLYLINE
  8
0
 62
7
 90
9
 70
1
 10
8.806563
 20
4.160000
 10
8.806563
 20
3.956562
 10
9.713437
 20
3.956562
 10
9.713437
 20
4.363437
 10
8.806563
 20
4.363437
 10
8.806563
 20
3.956562
 10
9.713437
 20
3.956562
 10
9.713437
 20
4.363437
 10
8.806563
 20
4.363437
  0
LWPOLYLINE
  8
0
 62
7
 90
9
 70
1
 10
8.806563
 20
4.920000
 10
8.806563
 20
4.716563
 10
9.713437
 20
4.716563
 10
9.713437
 20
5.123437
 10
8.806563
 20
5.123437
 10
8.806563
 20
4.716563
 10
9.713437
 20
4.716563
 10
9.713437
 20
5.123437
 10
8.806563
 20
5.123437
  0
LWPOLYLINE
  8
0
 62
7
 90
9
 70
1
 10
8.806563
 20
5.680000
 10
8.806563
 20
5.476562
 10
9.713437
 20
5.476562
 10
9.713437
 20
5.883437
 10
8.806563
 20
5.883437
 10
8.806563
 20
5.476562
 10
9.713437
 20
5.476562
 10
9.713437
 20
5.883437
 10
8.806563
 20
5.883437
  0
LWPOLYLINE
  8
0
 62
7
 90
9
 70
1
 10
8.806563
 20
6.440000
 10
8.806563
 20
6.236563
 10
9.713437
 20
6.236563
 10
9.713437
 20
6.643438
 10
8.806563
 20
6.643438
 10
8.806563
 20
6.236563
 10
9.713437
 20
6.236563
 10
9.713437
 20
6.643438
 10
8.806563
 20
6.643438
  0
LWPOLYLINE
  8
0
 62
7
 90
9
 70
1
 10
9.810000
 20
11.036563
 10
10.013438
 20
11.036563
 10
10.013438
 20
11.943437
 10
9.606563
 20
11.943437
 10
9.606563
 20
11.036563
 10
10.013438
 20
11.036563
 10
10.013438
 20
11.943437
 10
9.606563
 20
11.943437
 10
9.606563
 20
11.036563
  0
LWPOLYLINE
  8
0
 62
7
 90
9
 70
1
 10
10.570000
 20
11.036563
 10
10.773438
 20
11.036563
 10
10.773438
 20
11.943437
 10
10.366563
 20
11.943437
 10
10.366563
 20
11.036563
 10
10.773438
 20
11.036563
 10
10.773438
 20
11.943437
 10
10.366563
 20
11.943437
 10
10.366563
 20
11.036563
  0
LWPOLYLINE
  8
0
 62
7
 90
9
 70
1
 10
11.340000
 20
11.036563
 10
11.543437
 20
11.036563
 10
11.543437
 20
11.943437
 10
11.136563
 20
11.943437
 10
11.136563
 20
11.036563
 10
11.543437
 20
11.036563
 10
11.543437
 20
11.943437
 10
11.136563
 20
11.943437
 10
11.136563
 20
11.036563
  0
LWPOLYLINE
  8
0
 62
7
 90
9
 70
1
 10
12.100000
 20
11.036563
 10
12.303437
 20
11.036563
 10
12.303437
 20
11.943437
 10
11.896562
 20
11.943437
 10
11.896562
 20
11.036563
 10
12.303437
 20
11.036563
 10
12.303437
 20
11.943437
 10
11.896562
 20
11.943437
 10
11.896562
 20
11.036563
  0
LWPOLYLINE
  8
0
 62
7
 90
9
 70
1
 10
12.860000
 20
11.036563
 10
13.063437
 20
11.036563
 10
13.063437
 20
11.943437
 10
12.656562
 20
11.943437
 10
12.656562
 20
11.036563
 10
13.063437
 20
11.036563
 10
13.063437
 20
11.943437
 10
12.656562
 20
11.943437
 10
12.656562
 20
11.036563
  0
LWPOLYLINE
  8
0
 62
7
 90
9
 70
1
 10
13.620000
 20
11.036563
 10
13.823437
 20
11.036563
 10
13.823437
 20
11.943437
 10
13.416562
 20
11.943437
 10
13.416562
 20
11.036563
 10
13.823437
 20
11.036563
 10
13.823437
 20
11.943437
 10
13.416562
 20
11.943437
 10
13.416562
 20
11.036563
  0
LWPOLYLINE
  8
0
 62
7
 90
9
 70
1
 10
14.380000
 20
11.036563
 10
14.583438
 20
11.036563
 10
14.583438
 20
11.943437
 10
14.176563
 20
11.943437
 10
14.176563
 20
11.036563
 10
14.583438
 20
11.036563
 10
14.583438
 20
11.943437
 10
14.176563
 20
11.943437
 10
14.176563
 20
11.036563
  0
LWPOLYLINE
  8
0
 62
7
 90
9
 70
1
 10
15.150000
 20
11.036563
 10
15.353438
 20
11.036563
 10
15.353438
 20
11.943437
 10
14.946563
 20
11.943437
 10
14.946563
 20
11.036563
 10
15.353438
 20
11.036563
 10
15.353438
 20
11.943437
 10
14.946563
 20
11.943437
 10
14.946563
 20
11.036563
  0
LWPOLYLINE
  8
0
 62
7
 90
9
 70
1
 10
15.910000
 20
11.036563
 10
16.113437
 20
11.036563
 10
16.113437
 20
11.943437
 10
15.706563
 20
11.943437
 10
15.706563
 20
11.036563
 10
16.113437
 20
11.036563
 10
16.113437
 20
11.943437
 10
15.706563
 20
11.943437
 10
15.706563
 20
11.036563
  0
LWPOLYLINE
  8
0
 62
7
 90
9
 70
1
 10
16.670000
 20
11.036563
 10
16.873438
 20
11.036563
 10
16.873438
 20
11.943437
 10
16.466563
 20
11.943437
 10
16.466563
 20
11.036563
 10
16.873438
 20
11.036563
 10
16.873438
 20
11.943437
 10
16.466563
 20
11.943437
 10
16.466563
 20
11.036563
  0
LWPOLYLINE
  8
0
 62
7
 90
9
 70
1
 10
17.430000
 20
11.036563
 10
17.633437
 20
11.036563
 10
17.633437
 20
11.943437
 10
17.226562
 20
11.943437
 10
17.226562
 20
11.036563
 10
17.633437
 20
11.036563
 10
17.633437
 20
11.943437
 10
17.226562
 20
11.943437
 10
17.226562
 20
11.036563
  0
LWPOLYLINE
  8
0
 62
7
 90
9
 70
1
 10
18.190000
 20
11.036563
 10
18.393438
 20
11.036563
 10
18.393438
 20
11.943437
 10
17.986563
 20
11.943437
 10
17.986563
 20
11.036563
 10
18.393438
 20
11.036563
 10
18.393438
 20
11.943437
 10
17.986563
 20
11.943437
 10
17.986563
 20
11.036563
  0
LWPOLYLINE
  8
0
 62
7
 90
9
 70
1
 10
19.203437
 20
10.250000
 10
19.203437
 20
10.453437
 10
18.296563
 20
10.453437
 10
18.296563
 20
10.046563
 10
19.203437
 20
10.046563
 10
19.203437
 20
10.453437
 10
18.296563
 20
10.453437
 10
18.296563
 20
10.046563
 10
19.203437
 20
10.046563
  0
LWPOLYLINE
  8
0
 62
7
 90
9
 70
1
 10
19.203437
 20
9.490000
 10
19.203437
 20
9.693437
 10
18.296563
 20
9.693437
 10
18.296563
 20
9.286563
 10
19.203437
 20
9.286563
 10
19.203437
 20
9.693437
 10
18.296563
 20
9.693437
 10
18.296563
 20
9.286563
 10
19.203437
 20
9.286563
  0
LWPOLYLINE
  8
0
 62
7
 90
9
 70
1
 10
19.203437
 20
8.730000
 10
19.203437
 20
8.933438
 10
18.296563
 20
8.933438
 10
18.296563
 20
8.526563
 10
19.203437
 20
8.526563
 10
19.203437
 20
8.933438
 10
18.296563
 20
8.933438
 10
18.296563
 20
8.526563
 10
19.203437
 20
8.526563
  0
LWPOLYLINE
  8
0
 62
7
 90
9
 70
1
 10
19.203437
 20
7.970000
 10
19.203437
 20
8.173438
 10
18.296563
 20
8.173438
 10
18.296563
 20
7.766563
 10
19.203437
 20
7.766563
 10
19.203437
 20
8.173438
 10
18.296563
 20
8.173438
 10
18.296563
 20
7.766563
 10
19.203437
 20
7.766563
  0
LWPOLYLINE
  8
0
 62
7
 90
9
 70
1
 10
12.108437
 20
20.975000
 10
12.108437
 20
21.178438
 10
11.091563
 20
21.178438
 10
11.091563
 20
20.771563
 10
12.108437
 20
20.771563
 10
12.108437
 20
21.178438
 10
11.091563
 20
21.178438
 10
11.091563
 20
20.771563
 10
12.108437
 20
20.771563
  0
LWPOLYLINE
  8
0
 62
7
 90
9
 70
1
 10
12.108437
 20
20.325000
 10
12.108437
 20
20.528437
 10
11.091563
 20
20.528437
 10
11.091563
 20
20.121562
 10
12.108437
 20
20.121562
 10
12.108437
 20
20.528437
 10
11.091563
 20
20.528437
 10
11.091563
 20
20.121562
 10
12.108437
 20
20.121562
  0
LWPOLYLINE
  8
0
 62
7
 90
9
 70
1
 10
12.108437
 20
19.675000
 10
12.108437
 20
19.878438
 10
11.091563
 20
19.878438
 10
11.091563
 20
19.471563
 10
12.108437
 20
19.471563
 10
12.108437
 20
19.878438
 10
11.091563
 20
19.878438
 10
11.091563
 20
19.471563
 10
12.108437
 20
19.471563
  0
LWPOLYLINE
  8
0
 62
7
 90
9
 70
1
 10
12.108437
 20
19.025000
 10
12.108437
 20
19.228437
 10
11.091563
 20
19.228437
 10
11.091563
 20
18.821562
 10
12.108437
 20
18.821562
 10
12.108437
 20
19.228437
 10
11.091563
 20
19.228437
 10
11.091563
 20
18.821562
 10
12.108437
 20
18.821562
  0
LWPOLYLINE
  8
0
 62
7
 90
9
 70
1
 10
16.908437
 20
19.025000
 10
16.908437
 20
19.228437
 10
15.891562
 20
19.228437
 10
15.891562
 20
18.821562
 10
16.908437
 20
18.821562
 10
16.908437
 20
19.228437
 10
15.891562
 20
19.228437
 10
15.891562
 20
18.821562
 10
16.908437
 20
18.821562
  0
LWPOLYLINE
  8
0
 62
7
 90
9
 70
1
 10
16.908437
 20
19.675000
 10
16.908437
 20
19.878438
 10
15.891562
 20
19.878438
 10
15.891562
 20
19.471563
 10
16.908437
 20
19.471563
 10
16.908437
 20
19.878438
 10
15.891562
 20
19.878438
 10
15.891562
 20
19.471563
 10
16.908437
 20
19.471563
  0
LWPOLYLINE
  8
0
 62
7
 90
9
 70
1
 10
16.908437
 20
20.325000
 10
16.908437
 20
20.528437
 10
15.891562
 20
20.528437
 10
15.891562
 20
20.121562
 10
16.908437
 20
20.121562
 10
16.908437
 20
20.528437
 10
15.891562
 20
20.528437
 10
15.891562
 20
20.121562
 10
16.908437
 20
20.121562
  0
LWPOLYLINE
  8
0
 62
7
 90
9
 70
1
 10
16.908437
 20
20.975000
 10
16.908437
 20
21.178438
 10
15.891562
 20
21.178438
 10
15.891562
 20
20.771563
 10
16.908437
 20
20.771563
 10
16.908437
 20
21.178438
 10
15.891562
 20
21.178438
 10
15.891562
 20
20.771563
 10
16.908437
 20
20.771563
  0
LWPOLYLINE
  8
0
 62
7
 90
9
 70
1
 10
28.127000
 20
13.293647
 10
28.127000
 20
28.900794
 10
-6.030794
 20
28.900794
 10
-6.030794
 20
-2.313500
 10
28.127000
 20
-2.313500
 10
28.127000
 20
28.900794
 10
-6.030794
 20
28.900794
 10
-6.030794
 20
-2.313500
 10
28.127000
 20
-2.313500
  0
ENDSEC
  0
EOF
