  0
SECTION
  2
HEADER
  9
$ACADVER
  1
AC1009
  9
$MEASUREMENT
 70
     1
  0
ENDSEC
  0
SECTION
  2
ENTITIES
  0
LWPOLYLINE
  8
0
 62
7
 90
9
 70
1
 10
17.948437
 20
25.000000
 10
17.948437
 20
25.498438
 10
16.851562
 20
25.498438
 10
16.851562
 20
24.501562
 10
17.948437
 20
24.501562
 10
17.948437
 20
25.498438
 10
16.851562
 20
25.498438
 10
16.851562
 20
24.501562
 10
17.948437
 20
24.501562
  0
LWPOLYLINE
  8
0
 62
7
 90
9
 70
1
 10
19.648438
 20
25.000000
 10
19.648438
 20
25.498438
 10
18.551563
 20
25.498438
 10
18.551563
 20
24.501562
 10
19.648438
 20
24.501562
 10
19.648438
 20
25.498438
 10
18.551563
 20
25.498438
 10
18.551563
 20
24.501562
 10
19.648438
 20
24.501562
  0
LWPOLYLINE
  8
0
 62
7
 90
9
 70
1
 10
10.250000
 20
26.051563
 10
10.748437
 20
26.051563
 10
10.748437
 20
27.148438
 10
9.751563
 20
27.148438
 10
9.751563
 20
26.051563
 10
10.748437
 20
26.051563
 10
10.748437
 20
27.148438
 10
9.751563
 20
27.148438
 10
9.751563
 20
26.051563
  0
LWPOLYLINE
  8
0
 62
7
 90
9
 70
1
 10
10.250000
 20
24.351562
 10
10.748437
 20
24.351562
 10
10.748437
 20
25.448437
 10
9.751563
 20
25.448437
 10
9.751563
 20
24.351562
 10
10.748437
 20
24.351562
 10
10.748437
 20
25.448437
 10
9.751563
 20
25.448437
 10
9.751563
 20
24.351562
  0
LWPOLYLINE
  8
0
 62
7
 90
9
 70
1
 10
7.998437
 20
9.625000
 10
7.998437
 20
10.123437
 10
7.001563
 20
10.123437
 10
7.001563
 20
9.126563
 10
7.998437
 20
9.126563
 10
7.998437
 20
10.123437
 10
7.001563
 20
10.123437
 10
7.001563
 20
9.126563
 10
7.998437
 20
9.126563
  0
LWPOLYLINE
  8
0
 62
7
 90
9
 70
1
 10
14.250000
 20
26.601562
 10
14.648438
 20
26.601562
 10
14.648438
 20
27.398438
 10
13.851562
 20
27.398438
 10
13.851562
 20
26.601562
 10
14.648438
 20
26.601562
 10
14.648438
 20
27.398438
 10
13.851562
 20
27.398438
 10
13.851562
 20
26.601562
  0
LWPOLYLINE
  8
0
 62
7
 90
9
 70
1
 10
15.750000
 20
26.601562
 10
16.148438
 20
26.601562
 10
16.148438
 20
27.398438
 10
15.351562
 20
27.398438
 10
15.351562
 20
26.601562
 10
16.148438
 20
26.601562
 10
16.148438
 20
27.398438
 10
15.351562
 20
27.398438
 10
15.351562
 20
26.601562
  0
LWPOLYLINE
  8
0
 62
7
 90
9
 70
1
 10
11.201562
 20
24.550000
 10
11.201562
 20
24.201563
 10
12.798438
 20
24.201563
 10
12.798438
 20
24.898438
 10
11.201562
 20
24.898438
 10
11.201562
 20
24.201563
 10
12.798438
 20
24.201563
 10
12.798438
 20
24.898438
 10
11.201562
 20
24.898438
  0
LWPOLYLINE
  8
0
 62
7
 90
9
 70
1
 10
11.201562
 20
25.950000
 10
11.201562
 20
25.601562
 10
12.798438
 20
25.601562
 10
12.798438
 20
26.298437
 10
11.201562
 20
26.298437
 10
11.201562
 20
25.601562
 10
12.798438
 20
25.601562
 10
12.798438
 20
26.298437
 10
11.201562
 20
26.298437
  0
LWPOLYLINE
  8
0
 62
7
 90
9
 70
1
 10
18.301563
 20
27.000000
 10
18.301563
 20
26.501562
 10
19.398438
 20
26.501562
 10
19.398438
 20
27.498438
 10
18.301563
 20
27.498438
 10
18.301563
 20
26.501562
 10
19.398438
 20
26.501562
 10
19.398438
 20
27.498438
 10
18.301563
 20
27.498438
  0
LWPOLYLINE
  8
0
 62
7
 90
9
 70
1
 10
16.601562
 20
27.000000
 10
16.601562
 20
26.501562
 10
17.698437
 20
26.501562
 10
17.698437
 20
27.498438
 10
16.601562
 20
27.498438
 10
16.601562
 20
26.501562
 10
17.698437
 20
26.501562
 10
17.698437
 20
27.498438
 10
16.601562
 20
27.498438
  0
LWPOLYLINE
  8
0
 62
7
 90
9
 70
1
 10
16.851562
 20
15.850000
 10
16.851562
 20
15.351562
 10
18.298437
 20
15.351562
 10
18.298437
 20
16.348437
 10
16.851562
 20
16.348437
 10
16.851562
 20
15.351562
 10
18.298437
 20
15.351562
 10
18.298437
 20
16.348437
 10
16.851562
 20
16.348437
  0
LWPOLYLINE
  8
0
 62
7
 90
9
 70
1
 10
11.701563
 20
15.850000
 10
11.701563
 20
15.351562
 10
13.148438
 20
15.351562
 10
13.148438
 20
16.348437
 10
11.701563
 20
16.348437
 10
11.701563
 20
15.351562
 10
13.148438
 20
15.351562
 10
13.148438
 20
16.348437
 10
11.701563
 20
16.348437
  0
LWPOLYLINE
  8
0
 62
7
 90
9
 70
1
 10
16.851562
 20
17.550000
 10
16.851562
 20
17.051562
 10
18.298437
 20
17.051562
 10
18.298437
 20
18.048438
 10
16.851562
 20
18.048438
 10
16.851562
 20
17.051562
 10
18.298437
 20
17.051562
 10
18.298437
 20
18.048438
 10
16.851562
 20
18.048438
  0
LWPOLYLINE
  8
0
 62
7
 90
9
 70
1
 10
11.701563
 20
17.550000
 10
11.701563
 20
17.051562
 10
13.148438
 20
17.051562
 10
13.148438
 20
18.048438
 10
11.701563
 20
18.048438
 10
11.701563
 20
17.051562
 10
13.148438
 20
17.051562
 10
13.148438
 20
18.048438
 10
11.701563
 20
18.048438
  0
LWPOLYLINE
  8
0
 62
7
 90
9
 70
1
 10
28.148438
 20
12.800000
 10
28.148438
 20
13.298438
 10
27.551563
 20
13.298438
 10
27.551563
 20
12.301563
 10
28.148438
 20
12.301563
 10
28.148438
 20
13.298438
 10
27.551563
 20
13.298438
 10
27.551563
 20
12.301563
 10
28.148438
 20
12.301563
  0
LWPOLYLINE
  8
0
 62
7
 90
9
 70
1
 10
28.148438
 20
17.200000
 10
28.148438
 20
17.698438
 10
27.551563
 20
17.698438
 10
27.551563
 20
16.701562
 10
28.148438
 20
16.701562
 10
28.148438
 20
17.698438
 10
27.551563
 20
17.698438
 10
27.551563
 20
16.701562
 10
28.148438
 20
16.701562
  0
LWPOLYLINE
  8
0
 62
7
 90
9
 70
1
 10
24.448437
 20
12.800000
 10
24.448437
 20
13.298438
 10
23.851562
 20
13.298438
 10
23.851562
 20
12.301563
 10
24.448437
 20
12.301563
 10
24.448437
 20
13.298438
 10
23.851562
 20
13.298438
 10
23.851562
 20
12.301563
 10
24.448437
 20
12.301563
  0
LWPOLYLINE
  8
0
 62
7
 90
9
 70
1
 10
24.448437
 20
17.200000
 10
24.448437
 20
17.698438
 10
23.851562
 20
17.698438
 10
23.851562
 20
16.701562
 10
24.448437
 20
16.701562
 10
24.448437
 20
17.698438
 10
23.851562
 20
17.698438
 10
23.851562
 20
16.701562
 10
24.448437
 20
16.701562
  0
LWPOLYLINE
  8
0
 62
7
 90
9
 70
1
 10
1.800000
 20
12.851562
 10
2.298437
 20
12.851562
 10
2.298437
 20
13.448438
 10
1.301563
 20
13.448438
 10
1.301563
 20
12.851562
 10
2.298437
 20
12.851562
 10
2.298437
 20
13.448438
 10
1.301563
 20
13.448438
 10
1.301563
 20
12.851562
  0
LWPOLYLINE
  8
0
 62
7
 90
9
 70
1
 10
6.200000
 20
12.851562
 10
6.698437
 20
12.851562
 10
6.698437
 20
13.448438
 10
5.701563
 20
13.448438
 10
5.701563
 20
12.851562
 10
6.698437
 20
12.851562
 10
6.698437
 20
13.448438
 10
5.701563
 20
13.448438
 10
5.701563
 20
12.851562
  0
LWPOLYLINE
  8
0
 62
7
 90
9
 70
1
 10
1.800000
 20
16.551563
 10
2.298437
 20
16.551563
 10
2.298437
 20
17.148438
 10
1.301563
 20
17.148438
 10
1.301563
 20
16.551563
 10
2.298437
 20
16.551563
 10
2.298437
 20
17.148438
 10
1.301563
 20
17.148438
 10
1.301563
 20
16.551563
  0
LWPOLYLINE
  8
0
 62
7
 90
9
 70
1
 10
6.200000
 20
16.551563
 10
6.698437
 20
16.551563
 10
6.698437
 20
17.148438
 10
5.701563
 20
17.148438
 10
5.701563
 20
16.551563
 10
6.698437
 20
16.551563
 10
6.698437
 20
17.148438
 10
5.701563
 20
17.148438
 10
5.701563
 20
16.551563
  0
LWPOLYLINE
  8
0
 62
7
 90
9
 70
1
  0
LWPOLYLINE
  8
0
 62
7
 90
9
 70
1
 10
19.661562
 20
8.330000
 10
19.661562
 20
8.181563
 10
20.658438
 20
8.181563
 10
20.658438
 20
8.478438
 10
19.661562
 20
8.478438
 10
19.661562
 20
8.181563
 10
20.658438
 20
8.181563
 10
20.658438
 20
8.478438
 10
19.661562
 20
8.478438
  0
LWPOLYLINE
  8
0
 62
7
 90
9
 70
1
  0
LWPOLYLINE
  8
0
 62
7
 90
9
 70
1
 10
9.261563
 20
8.330000
 10
9.261563
 20
8.181563
 10
10.258437
 20
8.181563
 10
10.258437
 20
8.478438
 10
9.261563
 20
8.478438
 10
9.261563
 20
8.181563
 10
10.258437
 20
8.181563
 10
10.258437
 20
8.478438
 10
9.261563
 20
8.478438
  0
LWPOLYLINE
  8
0
 62
7
 90
9
 70
1
  0
LWPOLYLINE
  8
0
 62
7
 90
9
 70
1
 10
9.261563
 20
8.990000
 10
9.261563
 20
8.841563
 10
10.258437
 20
8.841563
 10
10.258437
 20
9.138438
 10
9.261563
 20
9.138438
 10
9.261563
 20
8.841563
 10
10.258437
 20
8.841563
 10
10.258437
 20
9.138438
 10
9.261563
 20
9.138438
  0
LWPOLYLINE
  8
0
 62
7
 90
9
 70
1
  0
LWPOLYLINE
  8
0
 62
7
 90
9
 70
1
 10
9.261563
 20
9.650000
 10
9.261563
 20
9.501563
 10
10.258437
 20
9.501563
 10
10.258437
 20
9.798438
 10
9.261563
 20
9.798438
 10
9.261563
 20
9.501563
 10
10.258437
 20
9.501563
 10
10.258437
 20
9.798438
 10
9.261563
 20
9.798438
  0
LWPOLYLINE
  8
0
 62
7
 90
9
 70
1
  0
LWPOLYLINE
  8
0
 62
7
 90
9
 70
1
 10
9.261563
 20
10.310000
 10
9.261563
 20
10.161563
 10
10.258437
 20
10.161563
 10
10.258437
 20
10.458438
 10
9.261563
 20
10.458438
 10
9.261563
 20
10.161563
 10
10.258437
 20
10.161563
 10
10.258437
 20
10.458438
 10
9.261563
 20
10.458438
  0
LWPOLYLINE
  8
0
 62
7
 90
9
 70
1
  0
LWPOLYLINE
  8
0
 62
7
 90
9
 70
1
 10
9.261563
 20
10.970000
 10
9.261563
 20
10.821563
 10
10.258437
 20
10.821563
 10
10.258437
 20
11.118438
 10
9.261563
 20
11.118438
 10
9.261563
 20
10.821563
 10
10.258437
 20
10.821563
 10
10.258437
 20
11.118438
 10
9.261563
 20
11.118438
  0
LWPOLYLINE
  8
0
 62
7
 90
9
 70
1
  0
LWPOLYLINE
  8
0
 62
7
 90
9
 70
1
 10
9.261563
 20
11.630000
 10
9.261563
 20
11.481563
 10
10.258437
 20
11.481563
 10
10.258437
 20
11.778438
 10
9.261563
 20
11.778438
 10
9.261563
 20
11.481563
 10
10.258437
 20
11.481563
 10
10.258437
 20
11.778438
 10
9.261563
 20
11.778438
  0
LWPOLYLINE
  8
0
 62
7
 90
9
 70
1
  0
LWPOLYLINE
  8
0
 62
7
 90
9
 70
1
 10
9.261563
 20
12.290000
 10
9.261563
 20
12.141562
 10
10.258437
 20
12.141562
 10
10.258437
 20
12.438437
 10
9.261563
 20
12.438437
 10
9.261563
 20
12.141562
 10
10.258437
 20
12.141562
 10
10.258437
 20
12.438437
 10
9.261563
 20
12.438437
  0
LWPOLYLINE
  8
0
 62
7
 90
9
 70
1
  0
LWPOLYLINE
  8
0
 62
7
 90
9
 70
1
 10
9.261563
 20
12.950000
 10
9.261563
 20
12.801562
 10
10.258437
 20
12.801562
 10
10.258437
 20
13.098437
 10
9.261563
 20
13.098437
 10
9.261563
 20
12.801562
 10
10.258437
 20
12.801562
 10
10.258437
 20
13.098437
 10
9.261563
 20
13.098437
  0
LWPOLYLINE
  8
0
 62
7
 90
9
 70
1
  0
LWPOLYLINE
  8
0
 62
7
 90
9
 70
1
 10
9.261563
 20
13.610000
 10
9.261563
 20
13.461562
 10
10.158438
 20
13.461562
 10
10.158438
 20
13.758437
 10
9.261563
 20
13.758437
 10
9.261563
 20
13.461562
 10
10.158438
 20
13.461562
 10
10.158438
 20
13.758437
 10
9.261563
 20
13.758437
  0
LWPOLYLINE
  8
0
 62
7
 90
9
 70
1
  0
LWPOLYLINE
  8
0
 62
7
 90
9
 70
1
 10
19.661562
 20
8.990000
 10
19.661562
 20
8.841563
 10
20.658438
 20
8.841563
 10
20.658438
 20
9.138438
 10
19.661562
 20
9.138438
 10
19.661562
 20
8.841563
 10
20.658438
 20
8.841563
 10
20.658438
 20
9.138438
 10
19.661562
 20
9.138438
  0
LWPOLYLINE
  8
0
 62
7
 90
9
 70
1
  0
LWPOLYLINE
  8
0
 62
7
 90
9
 70
1
 10
19.661562
 20
9.650000
 10
19.661562
 20
9.501563
 10
20.658438
 20
9.501563
 10
20.658438
 20
9.798438
 10
19.661562
 20
9.798438
 10
19.661562
 20
9.501563
 10
20.658438
 20
9.501563
 10
20.658438
 20
9.798438
 10
19.661562
 20
9.798438
  0
LWPOLYLINE
  8
0
 62
7
 90
9
 70
1
  0
LWPOLYLINE
  8
0
 62
7
 90
9
 70
1
 10
19.661562
 20
10.310000
 10
19.661562
 20
10.161563
 10
20.658438
 20
10.161563
 10
20.658438
 20
10.458438
 10
19.661562
 20
10.458438
 10
19.661562
 20
10.161563
 10
20.658438
 20
10.161563
 10
20.658438
 20
10.458438
 10
19.661562
 20
10.458438
  0
LWPOLYLINE
  8
0
 62
7
 90
9
 70
1
  0
LWPOLYLINE
  8
0
 62
7
 90
9
 70
1
 10
19.661562
 20
10.970000
 10
19.661562
 20
10.821563
 10
20.658438
 20
10.821563
 10
20.658438
 20
11.118438
 10
19.661562
 20
11.118438
 10
19.661562
 20
10.821563
 10
20.658438
 20
10.821563
 10
20.658438
 20
11.118438
 10
19.661562
 20
11.118438
  0
LWPOLYLINE
  8
0
 62
7
 90
9
 70
1
  0
LWPOLYLINE
  8
0
 62
7
 90
9
 70
1
 10
19.661562
 20
11.630000
 10
19.661562
 20
11.481563
 10
20.658438
 20
11.481563
 10
20.658438
 20
11.778438
 10
19.661562
 20
11.778438
 10
19.661562
 20
11.481563
 10
20.658438
 20
11.481563
 10
20.658438
 20
11.778438
 10
19.661562
 20
11.778438
  0
LWPOLYLINE
  8
0
 62
7
 90
9
 70
1
  0
LWPOLYLINE
  8
0
 62
7
 90
9
 70
1
 10
19.661562
 20
12.290000
 10
19.661562
 20
12.141562
 10
20.658438
 20
12.141562
 10
20.658438
 20
12.438437
 10
19.661562
 20
12.438437
 10
19.661562
 20
12.141562
 10
20.658438
 20
12.141562
 10
20.658438
 20
12.438437
 10
19.661562
 20
12.438437
  0
LWPOLYLINE
  8
0
 62
7
 90
9
 70
1
  0
LWPOLYLINE
  8
0
 62
7
 90
9
 70
1
 10
19.661562
 20
12.950000
 10
19.661562
 20
12.801562
 10
20.658438
 20
12.801562
 10
20.658438
 20
13.098437
 10
19.661562
 20
13.098437
 10
19.661562
 20
12.801562
 10
20.658438
 20
12.801562
 10
20.658438
 20
13.098437
 10
19.661562
 20
13.098437
  0
LWPOLYLINE
  8
0
 62
7
 90
9
 70
1
  0
LWPOLYLINE
  8
0
 62
7
 90
9
 70
1
 10
19.761563
 20
13.610000
 10
19.761563
 20
13.461562
 10
20.658438
 20
13.461562
 10
20.658438
 20
13.758437
 10
19.761563
 20
13.758437
 10
19.761563
 20
13.461562
 10
20.658438
 20
13.461562
 10
20.658438
 20
13.758437
 10
19.761563
 20
13.758437
  0
LWPOLYLINE
  8
0
 62
7
 90
9
 70
1
  0
LWPOLYLINE
  8
0
 62
7
 90
9
 70
1
 10
19.101562
 20
14.300000
 10
19.101562
 20
13.801563
 10
19.398438
 20
13.801563
 10
19.398438
 20
14.798438
 10
19.101562
 20
14.798438
 10
19.101562
 20
13.801563
 10
19.398438
 20
13.801563
 10
19.398438
 20
14.798438
 10
19.101562
 20
14.798438
  0
LWPOLYLINE
  8
0
 62
7
 90
9
 70
1
  0
LWPOLYLINE
  8
0
 62
7
 90
9
 70
1
 10
18.441562
 20
14.300000
 10
18.441562
 20
13.801563
 10
18.738437
 20
13.801563
 10
18.738437
 20
14.798438
 10
18.441562
 20
14.798438
 10
18.441562
 20
13.801563
 10
18.738437
 20
13.801563
 10
18.738437
 20
14.798438
 10
18.441562
 20
14.798438
  0
LWPOLYLINE
  8
0
 62
7
 90
9
 70
1
  0
LWPOLYLINE
  8
0
 62
7
 90
9
 70
1
 10
17.781562
 20
14.300000
 10
17.781562
 20
13.801563
 10
18.078437
 20
13.801563
 10
18.078437
 20
14.798438
 10
17.781562
 20
14.798438
 10
17.781562
 20
13.801563
 10
18.078437
 20
13.801563
 10
18.078437
 20
14.798438
 10
17.781562
 20
14.798438
  0
LWPOLYLINE
  8
0
 62
7
 90
9
 70
1
  0
LWPOLYLINE
  8
0
 62
7
 90
9
 70
1
 10
17.121562
 20
14.300000
 10
17.121562
 20
13.801563
 10
17.418437
 20
13.801563
 10
17.418437
 20
14.798438
 10
17.121562
 20
14.798438
 10
17.121562
 20
13.801563
 10
17.418437
 20
13.801563
 10
17.418437
 20
14.798438
 10
17.121562
 20
14.798438
  0
LWPOLYLINE
  8
0
 62
7
 90
9
 70
1
  0
LWPOLYLINE
  8
0
 62
7
 90
9
 70
1
 10
16.461562
 20
14.300000
 10
16.461562
 20
13.801563
 10
16.758437
 20
13.801563
 10
16.758437
 20
14.798438
 10
16.461562
 20
14.798438
 10
16.461562
 20
13.801563
 10
16.758437
 20
13.801563
 10
16.758437
 20
14.798438
 10
16.461562
 20
14.798438
  0
LWPOLYLINE
  8
0
 62
7
 90
9
 70
1
  0
LWPOLYLINE
  8
0
 62
7
 90
9
 70
1
 10
15.801562
 20
14.300000
 10
15.801562
 20
13.801563
 10
16.098437
 20
13.801563
 10
16.098437
 20
14.798438
 10
15.801562
 20
14.798438
 10
15.801562
 20
13.801563
 10
16.098437
 20
13.801563
 10
16.098437
 20
14.798438
 10
15.801562
 20
14.798438
  0
LWPOLYLINE
  8
0
 62
7
 90
9
 70
1
  0
LWPOLYLINE
  8
0
 62
7
 90
9
 70
1
 10
15.141562
 20
14.300000
 10
15.141562
 20
13.801563
 10
15.438437
 20
13.801563
 10
15.438437
 20
14.798438
 10
15.141562
 20
14.798438
 10
15.141562
 20
13.801563
 10
15.438437
 20
13.801563
 10
15.438437
 20
14.798438
 10
15.141562
 20
14.798438
  0
LWPOLYLINE
  8
0
 62
7
 90
9
 70
1
  0
LWPOLYLINE
  8
0
 62
7
 90
9
 70
1
 10
14.481563
 20
14.300000
 10
14.481563
 20
13.801563
 10
14.778438
 20
13.801563
 10
14.778438
 20
14.798438
 10
14.481563
 20
14.798438
 10
14.481563
 20
13.801563
 10
14.778438
 20
13.801563
 10
14.778438
 20
14.798438
 10
14.481563
 20
14.798438
  0
LWPOLYLINE
  8
0
 62
7
 90
9
 70
1
  0
LWPOLYLINE
  8
0
 62
7
 90
9
 70
1
 10
13.821563
 20
14.300000
 10
13.821563
 20
13.801563
 10
14.118438
 20
13.801563
 10
14.118438
 20
14.798438
 10
13.821563
 20
14.798438
 10
13.821563
 20
13.801563
 10
14.118438
 20
13.801563
 10
14.118438
 20
14.798438
 10
13.821563
 20
14.798438
  0
LWPOLYLINE
  8
0
 62
7
 90
9
 70
1
  0
LWPOLYLINE
  8
0
 62
7
 90
9
 70
1
 10
13.161563
 20
14.300000
 10
13.161563
 20
13.801563
 10
13.458438
 20
13.801563
 10
13.458438
 20
14.798438
 10
13.161563
 20
14.798438
 10
13.161563
 20
13.801563
 10
13.458438
 20
13.801563
 10
13.458438
 20
14.798438
 10
13.161563
 20
14.798438
  0
LWPOLYLINE
  8
0
 62
7
 90
9
 70
1
  0
LWPOLYLINE
  8
0
 62
7
 90
9
 70
1
 10
12.501563
 20
14.300000
 10
12.501563
 20
13.801563
 10
12.798438
 20
13.801563
 10
12.798438
 20
14.798438
 10
12.501563
 20
14.798438
 10
12.501563
 20
13.801563
 10
12.798438
 20
13.801563
 10
12.798438
 20
14.798438
 10
12.501563
 20
14.798438
  0
LWPOLYLINE
  8
0
 62
7
 90
9
 70
1
  0
LWPOLYLINE
  8
0
 62
7
 90
9
 70
1
 10
11.841563
 20
14.300000
 10
11.841563
 20
13.801563
 10
12.138438
 20
13.801563
 10
12.138438
 20
14.798438
 10
11.841563
 20
14.798438
 10
11.841563
 20
13.801563
 10
12.138438
 20
13.801563
 10
12.138438
 20
14.798438
 10
11.841563
 20
14.798438
  0
LWPOLYLINE
  8
0
 62
7
 90
9
 70
1
  0
LWPOLYLINE
  8
0
 62
7
 90
9
 70
1
 10
11.181563
 20
14.300000
 10
11.181563
 20
13.801563
 10
11.478438
 20
13.801563
 10
11.478438
 20
14.798438
 10
11.181563
 20
14.798438
 10
11.181563
 20
13.801563
 10
11.478438
 20
13.801563
 10
11.478438
 20
14.798438
 10
11.181563
 20
14.798438
  0
LWPOLYLINE
  8
0
 62
7
 90
9
 70
1
  0
LWPOLYLINE
  8
0
 62
7
 90
9
 70
1
 10
10.521562
 20
14.300000
 10
10.521562
 20
13.801563
 10
10.818437
 20
13.801563
 10
10.818437
 20
14.798438
 10
10.521562
 20
14.798438
 10
10.521562
 20
13.801563
 10
10.818437
 20
13.801563
 10
10.818437
 20
14.798438
 10
10.521562
 20
14.798438
  0
LWPOLYLINE
  8
0
 62
7
 90
9
 70
1
 10
16.100000
 20
24.798438
 10
15.651563
 20
24.798438
 10
15.651563
 20
24.401563
 10
16.548438
 20
24.401563
 10
16.548438
 20
24.798438
 10
15.651563
 20
24.798438
 10
15.651563
 20
24.401563
 10
16.548438
 20
24.401563
 10
16.548438
 20
24.798438
  0
LWPOLYLINE
  8
0
 62
7
 90
9
 70
1
 10
16.100000
 20
25.448438
 10
15.651563
 20
25.448438
 10
15.651563
 20
25.051562
 10
16.548438
 20
25.051562
 10
16.548438
 20
25.448438
 10
15.651563
 20
25.448438
 10
15.651563
 20
25.051562
 10
16.548438
 20
25.051562
 10
16.548438
 20
25.448438
  0
LWPOLYLINE
  8
0
 62
7
 90
9
 70
1
 10
16.100000
 20
26.098437
 10
15.651563
 20
26.098437
 10
15.651563
 20
25.701562
 10
16.548438
 20
25.701562
 10
16.548438
 20
26.098437
 10
15.651563
 20
26.098437
 10
15.651563
 20
25.701562
 10
16.548438
 20
25.701562
 10
16.548438
 20
26.098437
  0
LWPOLYLINE
  8
0
 62
7
 90
9
 70
1
 10
13.900000
 20
26.098437
 10
13.451562
 20
26.098437
 10
13.451562
 20
25.701562
 10
14.348438
 20
25.701562
 10
14.348438
 20
26.098437
 10
13.451562
 20
26.098437
 10
13.451562
 20
25.701562
 10
14.348438
 20
25.701562
 10
14.348438
 20
26.098437
  0
LWPOLYLINE
  8
0
 62
7
 90
9
 70
1
 10
13.900000
 20
25.448438
 10
13.451562
 20
25.448438
 10
13.451562
 20
25.051562
 10
14.348438
 20
25.051562
 10
14.348438
 20
25.448438
 10
13.451562
 20
25.448438
 10
13.451562
 20
25.051562
 10
14.348438
 20
25.051562
 10
14.348438
 20
25.448438
  0
LWPOLYLINE
  8
0
 62
7
 90
9
 70
1
 10
13.900000
 20
24.798438
 10
13.451562
 20
24.798438
 10
13.451562
 20
24.401563
 10
14.348438
 20
24.401563
 10
14.348438
 20
24.798438
 10
13.451562
 20
24.798438
 10
13.451562
 20
24.401563
 10
14.348438
 20
24.401563
 10
14.348438
 20
24.798438
  0
ENDSEC
  0
EOF
