  0
SECTION
  2
HEADER
  9
$ACADVER
  1
AC1009
  9
$MEASUREMENT
 70
     1
  0
ENDSEC
  0
SECTION
  2
ENTITIES
  0
LWPOLYLINE
  8
0
 62
7
 90
9
 70
1
 10
15.198438
 20
21.500000
 10
15.198438
 20
21.998438
 10
14.101562
 20
21.998438
 10
14.101562
 20
21.001562
 10
15.198438
 20
21.001562
 10
15.198438
 20
21.998438
 10
14.101562
 20
21.998438
 10
14.101562
 20
21.001562
 10
15.198438
 20
21.001562
  0
LWPOLYLINE
  8
0
 62
7
 90
9
 70
1
 10
16.898438
 20
21.500000
 10
16.898438
 20
21.998438
 10
15.801563
 20
21.998438
 10
15.801563
 20
21.001562
 10
16.898438
 20
21.001562
 10
16.898438
 20
21.998438
 10
15.801563
 20
21.998438
 10
15.801563
 20
21.001562
 10
16.898438
 20
21.001562
  0
LWPOLYLINE
  8
0
 62
7
 90
9
 70
1
 10
14.948438
 20
25.500000
 10
14.948438
 20
25.998438
 10
13.851562
 20
25.998438
 10
13.851562
 20
25.001562
 10
14.948438
 20
25.001562
 10
14.948438
 20
25.998438
 10
13.851562
 20
25.998438
 10
13.851562
 20
25.001562
 10
14.948438
 20
25.001562
  0
LWPOLYLINE
  8
0
 62
7
 90
9
 70
1
 10
16.648438
 20
25.500000
 10
16.648438
 20
25.998438
 10
15.551563
 20
25.998438
 10
15.551563
 20
25.001562
 10
16.648438
 20
25.001562
 10
16.648438
 20
25.998438
 10
15.551563
 20
25.998438
 10
15.551563
 20
25.001562
 10
16.648438
 20
25.001562
  0
LWPOLYLINE
  8
0
 62
7
 90
9
 70
1
 10
7.998437
 20
9.625000
 10
7.998437
 20
10.123437
 10
7.001563
 20
10.123437
 10
7.001563
 20
9.126563
 10
7.998437
 20
9.126563
 10
7.998437
 20
10.123437
 10
7.001563
 20
10.123437
 10
7.001563
 20
9.126563
 10
7.998437
 20
9.126563
  0
LWPOLYLINE
  8
0
 62
7
 90
9
 70
1
 10
14.250000
 20
26.601562
 10
14.648438
 20
26.601562
 10
14.648438
 20
27.398438
 10
13.851562
 20
27.398438
 10
13.851562
 20
26.601562
 10
14.648438
 20
26.601562
 10
14.648438
 20
27.398438
 10
13.851562
 20
27.398438
 10
13.851562
 20
26.601562
  0
LWPOLYLINE
  8
0
 62
7
 90
9
 70
1
 10
15.750000
 20
26.601562
 10
16.148438
 20
26.601562
 10
16.148438
 20
27.398438
 10
15.351562
 20
27.398438
 10
15.351562
 20
26.601562
 10
16.148438
 20
26.601562
 10
16.148438
 20
27.398438
 10
15.351562
 20
27.398438
 10
15.351562
 20
26.601562
  0
LWPOLYLINE
  8
0
 62
7
 90
9
 70
1
 10
12.201562
 20
22.300000
 10
12.201562
 20
21.951563
 10
13.798438
 20
21.951563
 10
13.798438
 20
22.648438
 10
12.201562
 20
22.648438
 10
12.201562
 20
21.951563
 10
13.798438
 20
21.951563
 10
13.798438
 20
22.648438
 10
12.201562
 20
22.648438
  0
LWPOLYLINE
  8
0
 62
7
 90
9
 70
1
 10
12.201562
 20
23.700000
 10
12.201562
 20
23.351562
 10
13.798438
 20
23.351562
 10
13.798438
 20
24.048437
 10
12.201562
 20
24.048437
 10
12.201562
 20
23.351562
 10
13.798438
 20
23.351562
 10
13.798438
 20
24.048437
 10
12.201562
 20
24.048437
  0
LWPOLYLINE
  8
0
 62
7
 90
9
 70
1
 10
18.301563
 20
27.000000
 10
18.301563
 20
26.501562
 10
19.398438
 20
26.501562
 10
19.398438
 20
27.498438
 10
18.301563
 20
27.498438
 10
18.301563
 20
26.501562
 10
19.398438
 20
26.501562
 10
19.398438
 20
27.498438
 10
18.301563
 20
27.498438
  0
LWPOLYLINE
  8
0
 62
7
 90
9
 70
1
 10
16.601562
 20
27.000000
 10
16.601562
 20
26.501562
 10
17.698437
 20
26.501562
 10
17.698437
 20
27.498438
 10
16.601562
 20
27.498438
 10
16.601562
 20
26.501562
 10
17.698437
 20
26.501562
 10
17.698437
 20
27.498438
 10
16.601562
 20
27.498438
  0
LWPOLYLINE
  8
0
 62
7
 90
9
 70
1
 10
16.851562
 20
15.850000
 10
16.851562
 20
15.351562
 10
18.298437
 20
15.351562
 10
18.298437
 20
16.348437
 10
16.851562
 20
16.348437
 10
16.851562
 20
15.351562
 10
18.298437
 20
15.351562
 10
18.298437
 20
16.348437
 10
16.851562
 20
16.348437
  0
LWPOLYLINE
  8
0
 62
7
 90
9
 70
1
 10
11.701563
 20
15.850000
 10
11.701563
 20
15.351562
 10
13.148438
 20
15.351562
 10
13.148438
 20
16.348437
 10
11.701563
 20
16.348437
 10
11.701563
 20
15.351562
 10
13.148438
 20
15.351562
 10
13.148438
 20
16.348437
 10
11.701563
 20
16.348437
  0
LWPOLYLINE
  8
0
 62
7
 90
9
 70
1
 10
16.851562
 20
17.550000
 10
16.851562
 20
17.051562
 10
18.298437
 20
17.051562
 10
18.298437
 20
18.048438
 10
16.851562
 20
18.048438
 10
16.851562
 20
17.051562
 10
18.298437
 20
17.051562
 10
18.298437
 20
18.048438
 10
16.851562
 20
18.048438
  0
LWPOLYLINE
  8
0
 62
7
 90
9
 70
1
 10
11.701563
 20
17.550000
 10
11.701563
 20
17.051562
 10
13.148438
 20
17.051562
 10
13.148438
 20
18.048438
 10
11.701563
 20
18.048438
 10
11.701563
 20
17.051562
 10
13.148438
 20
17.051562
 10
13.148438
 20
18.048438
 10
11.701563
 20
18.048438
  0
LWPOLYLINE
  8
0
 62
7
 90
9
 70
1
 10
28.148438
 20
12.800000
 10
28.148438
 20
13.298438
 10
27.551563
 20
13.298438
 10
27.551563
 20
12.301563
 10
28.148438
 20
12.301563
 10
28.148438
 20
13.298438
 10
27.551563
 20
13.298438
 10
27.551563
 20
12.301563
 10
28.148438
 20
12.301563
  0
LWPOLYLINE
  8
0
 62
7
 90
9
 70
1
 10
28.148438
 20
17.200000
 10
28.148438
 20
17.698438
 10
27.551563
 20
17.698438
 10
27.551563
 20
16.701562
 10
28.148438
 20
16.701562
 10
28.148438
 20
17.698438
 10
27.551563
 20
17.698438
 10
27.551563
 20
16.701562
 10
28.148438
 20
16.701562
  0
LWPOLYLINE
  8
0
 62
7
 90
9
 70
1
 10
24.448437
 20
12.800000
 10
24.448437
 20
13.298438
 10
23.851562
 20
13.298438
 10
23.851562
 20
12.301563
 10
24.448437
 20
12.301563
 10
24.448437
 20
13.298438
 10
23.851562
 20
13.298438
 10
23.851562
 20
12.301563
 10
24.448437
 20
12.301563
  0
LWPOLYLINE
  8
0
 62
7
 90
9
 70
1
 10
24.448437
 20
17.200000
 10
24.448437
 20
17.698438
 10
23.851562
 20
17.698438
 10
23.851562
 20
16.701562
 10
24.448437
 20
16.701562
 10
24.448437
 20
17.698438
 10
23.851562
 20
17.698438
 10
23.851562
 20
16.701562
 10
24.448437
 20
16.701562
  0
LWPOLYLINE
  8
0
 62
7
 90
9
 70
1
 10
23.251563
 20
15.000000
 10
23.251563
 20
14.501563
 10
23.698438
 20
14.501563
 10
23.698438
 20
15.498437
 10
23.251563
 20
15.498437
 10
23.251563
 20
14.501563
 10
23.698438
 20
14.501563
 10
23.698438
 20
15.498437
 10
23.251563
 20
15.498437
  0
LWPOLYLINE
  8
0
 62
7
 90
9
 70
1
 10
28.301562
 20
15.000000
 10
28.301562
 20
14.501563
 10
28.748437
 20
14.501563
 10
28.748437
 20
15.498437
 10
28.301562
 20
15.498437
 10
28.301562
 20
14.501563
 10
28.748437
 20
14.501563
 10
28.748437
 20
15.498437
 10
28.301562
 20
15.498437
  0
LWPOLYLINE
  8
0
 62
7
 90
9
 70
1
 10
1.800000
 20
12.851562
 10
2.298437
 20
12.851562
 10
2.298437
 20
13.448438
 10
1.301563
 20
13.448438
 10
1.301563
 20
12.851562
 10
2.298437
 20
12.851562
 10
2.298437
 20
13.448438
 10
1.301563
 20
13.448438
 10
1.301563
 20
12.851562
  0
LWPOLYLINE
  8
0
 62
7
 90
9
 70
1
 10
6.200000
 20
12.851562
 10
6.698437
 20
12.851562
 10
6.698437
 20
13.448438
 10
5.701563
 20
13.448438
 10
5.701563
 20
12.851562
 10
6.698437
 20
12.851562
 10
6.698437
 20
13.448438
 10
5.701563
 20
13.448438
 10
5.701563
 20
12.851562
  0
LWPOLYLINE
  8
0
 62
7
 90
9
 70
1
 10
1.800000
 20
16.551563
 10
2.298437
 20
16.551563
 10
2.298437
 20
17.148438
 10
1.301563
 20
17.148438
 10
1.301563
 20
16.551563
 10
2.298437
 20
16.551563
 10
2.298437
 20
17.148438
 10
1.301563
 20
17.148438
 10
1.301563
 20
16.551563
  0
LWPOLYLINE
  8
0
 62
7
 90
9
 70
1
 10
6.200000
 20
16.551563
 10
6.698437
 20
16.551563
 10
6.698437
 20
17.148438
 10
5.701563
 20
17.148438
 10
5.701563
 20
16.551563
 10
6.698437
 20
16.551563
 10
6.698437
 20
17.148438
 10
5.701563
 20
17.148438
 10
5.701563
 20
16.551563
  0
LWPOLYLINE
  8
0
 62
7
 90
9
 70
1
 10
4.000000
 20
17.748437
 10
3.501562
 20
17.748437
 10
3.501562
 20
17.301562
 10
4.498437
 20
17.301562
 10
4.498437
 20
17.748437
 10
3.501562
 20
17.748437
 10
3.501562
 20
17.301562
 10
4.498437
 20
17.301562
 10
4.498437
 20
17.748437
  0
LWPOLYLINE
  8
0
 62
7
 90
9
 70
1
 10
4.000000
 20
12.698437
 10
3.501562
 20
12.698437
 10
3.501562
 20
12.251563
 10
4.498437
 20
12.251563
 10
4.498437
 20
12.698437
 10
3.501562
 20
12.698437
 10
3.501562
 20
12.251563
 10
4.498437
 20
12.251563
 10
4.498437
 20
12.698437
  0
LWPOLYLINE
  8
0
 62
7
 90
9
 70
1
 10
9.301562
 20
8.330000
 10
9.301562
 20
8.126563
 10
10.288438
 20
8.126563
 10
10.288438
 20
8.533437
 10
9.301562
 20
8.533437
 10
9.301562
 20
8.126563
 10
10.288438
 20
8.126563
 10
10.288438
 20
8.533437
 10
9.301562
 20
8.533437
  0
LWPOLYLINE
  8
0
 62
7
 90
9
 70
1
 10
9.301562
 20
8.990000
 10
9.301562
 20
8.786563
 10
10.288438
 20
8.786563
 10
10.288438
 20
9.193437
 10
9.301562
 20
9.193437
 10
9.301562
 20
8.786563
 10
10.288438
 20
8.786563
 10
10.288438
 20
9.193437
 10
9.301562
 20
9.193437
  0
LWPOLYLINE
  8
0
 62
7
 90
9
 70
1
 10
9.301562
 20
9.650000
 10
9.301562
 20
9.446563
 10
10.288438
 20
9.446563
 10
10.288438
 20
9.853438
 10
9.301562
 20
9.853438
 10
9.301562
 20
9.446563
 10
10.288438
 20
9.446563
 10
10.288438
 20
9.853438
 10
9.301562
 20
9.853438
  0
LWPOLYLINE
  8
0
 62
7
 90
9
 70
1
 10
9.301562
 20
10.310000
 10
9.301562
 20
10.106563
 10
10.288438
 20
10.106563
 10
10.288438
 20
10.513438
 10
9.301562
 20
10.513438
 10
9.301562
 20
10.106563
 10
10.288438
 20
10.106563
 10
10.288438
 20
10.513438
 10
9.301562
 20
10.513438
  0
LWPOLYLINE
  8
0
 62
7
 90
9
 70
1
 10
9.301562
 20
10.970000
 10
9.301562
 20
10.766563
 10
10.288438
 20
10.766563
 10
10.288438
 20
11.173438
 10
9.301562
 20
11.173438
 10
9.301562
 20
10.766563
 10
10.288438
 20
10.766563
 10
10.288438
 20
11.173438
 10
9.301562
 20
11.173438
  0
LWPOLYLINE
  8
0
 62
7
 90
9
 70
1
 10
9.301562
 20
11.630000
 10
9.301562
 20
11.426563
 10
10.288438
 20
11.426563
 10
10.288438
 20
11.833438
 10
9.301562
 20
11.833438
 10
9.301562
 20
11.426563
 10
10.288438
 20
11.426563
 10
10.288438
 20
11.833438
 10
9.301562
 20
11.833438
  0
LWPOLYLINE
  8
0
 62
7
 90
9
 70
1
 10
9.301562
 20
12.290000
 10
9.301562
 20
12.086562
 10
10.288438
 20
12.086562
 10
10.288438
 20
12.493437
 10
9.301562
 20
12.493437
 10
9.301562
 20
12.086562
 10
10.288438
 20
12.086562
 10
10.288438
 20
12.493437
 10
9.301562
 20
12.493437
  0
LWPOLYLINE
  8
0
 62
7
 90
9
 70
1
 10
9.301562
 20
12.950000
 10
9.301562
 20
12.746562
 10
10.288438
 20
12.746562
 10
10.288438
 20
13.153437
 10
9.301562
 20
13.153437
 10
9.301562
 20
12.746562
 10
10.288438
 20
12.746562
 10
10.288438
 20
13.153437
 10
9.301562
 20
13.153437
  0
LWPOLYLINE
  8
0
 62
7
 90
9
 70
1
 10
9.301562
 20
13.610000
 10
9.301562
 20
13.406562
 10
10.238437
 20
13.406562
 10
10.238437
 20
13.813437
 10
9.301562
 20
13.813437
 10
9.301562
 20
13.406562
 10
10.238437
 20
13.406562
 10
10.238437
 20
13.813437
 10
9.301562
 20
13.813437
  0
LWPOLYLINE
  8
0
 62
7
 90
9
 70
1
 10
10.710000
 20
13.711562
 10
10.913438
 20
13.711562
 10
10.913438
 20
14.698438
 10
10.506563
 20
14.698438
 10
10.506563
 20
13.711562
 10
10.913438
 20
13.711562
 10
10.913438
 20
14.698438
 10
10.506563
 20
14.698438
 10
10.506563
 20
13.711562
  0
LWPOLYLINE
  8
0
 62
7
 90
9
 70
1
 10
11.370000
 20
13.711562
 10
11.573437
 20
13.711562
 10
11.573437
 20
14.698438
 10
11.166562
 20
14.698438
 10
11.166562
 20
13.711562
 10
11.573437
 20
13.711562
 10
11.573437
 20
14.698438
 10
11.166562
 20
14.698438
 10
11.166562
 20
13.711562
  0
LWPOLYLINE
  8
0
 62
7
 90
9
 70
1
 10
12.030000
 20
13.711562
 10
12.233437
 20
13.711562
 10
12.233437
 20
14.698438
 10
11.826562
 20
14.698438
 10
11.826562
 20
13.711562
 10
12.233437
 20
13.711562
 10
12.233437
 20
14.698438
 10
11.826562
 20
14.698438
 10
11.826562
 20
13.711562
  0
LWPOLYLINE
  8
0
 62
7
 90
9
 70
1
 10
12.690000
 20
13.711562
 10
12.893437
 20
13.711562
 10
12.893437
 20
14.698438
 10
12.486562
 20
14.698438
 10
12.486562
 20
13.711562
 10
12.893437
 20
13.711562
 10
12.893437
 20
14.698438
 10
12.486562
 20
14.698438
 10
12.486562
 20
13.711562
  0
LWPOLYLINE
  8
0
 62
7
 90
9
 70
1
 10
13.350000
 20
13.711562
 10
13.553437
 20
13.711562
 10
13.553437
 20
14.698438
 10
13.146562
 20
14.698438
 10
13.146562
 20
13.711562
 10
13.553437
 20
13.711562
 10
13.553437
 20
14.698438
 10
13.146562
 20
14.698438
 10
13.146562
 20
13.711562
  0
LWPOLYLINE
  8
0
 62
7
 90
9
 70
1
 10
14.010000
 20
13.711562
 10
14.213437
 20
13.711562
 10
14.213437
 20
14.698438
 10
13.806563
 20
14.698438
 10
13.806563
 20
13.711562
 10
14.213437
 20
13.711562
 10
14.213437
 20
14.698438
 10
13.806563
 20
14.698438
 10
13.806563
 20
13.711562
  0
LWPOLYLINE
  8
0
 62
7
 90
9
 70
1
 10
14.670000
 20
13.711562
 10
14.873437
 20
13.711562
 10
14.873437
 20
14.698438
 10
14.466563
 20
14.698438
 10
14.466563
 20
13.711562
 10
14.873437
 20
13.711562
 10
14.873437
 20
14.698438
 10
14.466563
 20
14.698438
 10
14.466563
 20
13.711562
  0
LWPOLYLINE
  8
0
 62
7
 90
9
 70
1
 10
15.330000
 20
13.711562
 10
15.533437
 20
13.711562
 10
15.533437
 20
14.698438
 10
15.126563
 20
14.698438
 10
15.126563
 20
13.711562
 10
15.533437
 20
13.711562
 10
15.533437
 20
14.698438
 10
15.126563
 20
14.698438
 10
15.126563
 20
13.711562
  0
LWPOLYLINE
  8
0
 62
7
 90
9
 70
1
 10
15.990000
 20
13.711562
 10
16.193438
 20
13.711562
 10
16.193438
 20
14.698438
 10
15.786563
 20
14.698438
 10
15.786563
 20
13.711562
 10
16.193438
 20
13.711562
 10
16.193438
 20
14.698438
 10
15.786563
 20
14.698438
 10
15.786563
 20
13.711562
  0
LWPOLYLINE
  8
0
 62
7
 90
9
 70
1
 10
16.650000
 20
13.711562
 10
16.853437
 20
13.711562
 10
16.853437
 20
14.698438
 10
16.446562
 20
14.698438
 10
16.446562
 20
13.711562
 10
16.853437
 20
13.711562
 10
16.853437
 20
14.698438
 10
16.446562
 20
14.698438
 10
16.446562
 20
13.711562
  0
LWPOLYLINE
  8
0
 62
7
 90
9
 70
1
 10
17.310000
 20
13.711562
 10
17.513437
 20
13.711562
 10
17.513437
 20
14.698438
 10
17.106562
 20
14.698438
 10
17.106562
 20
13.711562
 10
17.513437
 20
13.711562
 10
17.513437
 20
14.698438
 10
17.106562
 20
14.698438
 10
17.106562
 20
13.711562
  0
LWPOLYLINE
  8
0
 62
7
 90
9
 70
1
 10
17.970000
 20
13.711562
 10
18.173437
 20
13.711562
 10
18.173437
 20
14.698438
 10
17.766562
 20
14.698438
 10
17.766562
 20
13.711562
 10
18.173437
 20
13.711562
 10
18.173437
 20
14.698438
 10
17.766562
 20
14.698438
 10
17.766562
 20
13.711562
  0
LWPOLYLINE
  8
0
 62
7
 90
9
 70
1
 10
18.630000
 20
13.711562
 10
18.833437
 20
13.711562
 10
18.833437
 20
14.698438
 10
18.426562
 20
14.698438
 10
18.426562
 20
13.711562
 10
18.833437
 20
13.711562
 10
18.833437
 20
14.698438
 10
18.426562
 20
14.698438
 10
18.426562
 20
13.711562
  0
LWPOLYLINE
  8
0
 62
7
 90
9
 70
1
 10
19.290000
 20
13.711562
 10
19.493437
 20
13.711562
 10
19.493437
 20
14.698438
 10
19.086562
 20
14.698438
 10
19.086562
 20
13.711562
 10
19.493437
 20
13.711562
 10
19.493437
 20
14.698438
 10
19.086562
 20
14.698438
 10
19.086562
 20
13.711562
  0
LWPOLYLINE
  8
0
 62
7
 90
9
 70
1
 10
19.761563
 20
13.610000
 10
19.761563
 20
13.406562
 10
20.698438
 20
13.406562
 10
20.698438
 20
13.813437
 10
19.761563
 20
13.813437
 10
19.761563
 20
13.406562
 10
20.698438
 20
13.406562
 10
20.698438
 20
13.813437
 10
19.761563
 20
13.813437
  0
LWPOLYLINE
  8
0
 62
7
 90
9
 70
1
 10
19.711562
 20
12.950000
 10
19.711562
 20
12.746562
 10
20.698437
 20
12.746562
 10
20.698437
 20
13.153437
 10
19.711562
 20
13.153437
 10
19.711562
 20
12.746562
 10
20.698437
 20
12.746562
 10
20.698437
 20
13.153437
 10
19.711562
 20
13.153437
  0
LWPOLYLINE
  8
0
 62
7
 90
9
 70
1
 10
19.711562
 20
12.290000
 10
19.711562
 20
12.086562
 10
20.698437
 20
12.086562
 10
20.698437
 20
12.493437
 10
19.711562
 20
12.493437
 10
19.711562
 20
12.086562
 10
20.698437
 20
12.086562
 10
20.698437
 20
12.493437
 10
19.711562
 20
12.493437
  0
LWPOLYLINE
  8
0
 62
7
 90
9
 70
1
 10
19.711562
 20
11.630000
 10
19.711562
 20
11.426563
 10
20.698437
 20
11.426563
 10
20.698437
 20
11.833438
 10
19.711562
 20
11.833438
 10
19.711562
 20
11.426563
 10
20.698437
 20
11.426563
 10
20.698437
 20
11.833438
 10
19.711562
 20
11.833438
  0
LWPOLYLINE
  8
0
 62
7
 90
9
 70
1
 10
19.711562
 20
10.970000
 10
19.711562
 20
10.766563
 10
20.698437
 20
10.766563
 10
20.698437
 20
11.173438
 10
19.711562
 20
11.173438
 10
19.711562
 20
10.766563
 10
20.698437
 20
10.766563
 10
20.698437
 20
11.173438
 10
19.711562
 20
11.173438
  0
LWPOLYLINE
  8
0
 62
7
 90
9
 70
1
 10
19.711562
 20
10.310000
 10
19.711562
 20
10.106563
 10
20.698437
 20
10.106563
 10
20.698437
 20
10.513438
 10
19.711562
 20
10.513438
 10
19.711562
 20
10.106563
 10
20.698437
 20
10.106563
 10
20.698437
 20
10.513438
 10
19.711562
 20
10.513438
  0
LWPOLYLINE
  8
0
 62
7
 90
9
 70
1
 10
19.711562
 20
9.650000
 10
19.711562
 20
9.446563
 10
20.698437
 20
9.446563
 10
20.698437
 20
9.853438
 10
19.711562
 20
9.853438
 10
19.711562
 20
9.446563
 10
20.698437
 20
9.446563
 10
20.698437
 20
9.853438
 10
19.711562
 20
9.853438
  0
LWPOLYLINE
  8
0
 62
7
 90
9
 70
1
 10
19.711562
 20
8.990000
 10
19.711562
 20
8.786563
 10
20.698437
 20
8.786563
 10
20.698437
 20
9.193437
 10
19.711562
 20
9.193437
 10
19.711562
 20
8.786563
 10
20.698437
 20
8.786563
 10
20.698437
 20
9.193437
 10
19.711562
 20
9.193437
  0
LWPOLYLINE
  8
0
 62
7
 90
9
 70
1
 10
19.711562
 20
8.330000
 10
19.711562
 20
8.126563
 10
20.698437
 20
8.126563
 10
20.698437
 20
8.533437
 10
19.711562
 20
8.533437
 10
19.711562
 20
8.126563
 10
20.698437
 20
8.126563
 10
20.698437
 20
8.533437
 10
19.711562
 20
8.533437
  0
LWPOLYLINE
  8
0
 62
7
 90
9
 70
1
 10
17.100000
 20
23.048438
 10
16.651563
 20
23.048438
 10
16.651563
 20
22.651563
 10
17.548438
 20
22.651563
 10
17.548438
 20
23.048438
 10
16.651563
 20
23.048438
 10
16.651563
 20
22.651563
 10
17.548438
 20
22.651563
 10
17.548438
 20
23.048438
  0
LWPOLYLINE
  8
0
 62
7
 90
9
 70
1
 10
17.100000
 20
23.698438
 10
16.651563
 20
23.698438
 10
16.651563
 20
23.301562
 10
17.548438
 20
23.301562
 10
17.548438
 20
23.698438
 10
16.651563
 20
23.698438
 10
16.651563
 20
23.301562
 10
17.548438
 20
23.301562
 10
17.548438
 20
23.698438
  0
LWPOLYLINE
  8
0
 62
7
 90
9
 70
1
 10
17.100000
 20
24.348437
 10
16.651563
 20
24.348437
 10
16.651563
 20
23.951562
 10
17.548438
 20
23.951562
 10
17.548438
 20
24.348437
 10
16.651563
 20
24.348437
 10
16.651563
 20
23.951562
 10
17.548438
 20
23.951562
 10
17.548438
 20
24.348437
  0
LWPOLYLINE
  8
0
 62
7
 90
9
 70
1
 10
14.900000
 20
24.348437
 10
14.451562
 20
24.348437
 10
14.451562
 20
23.951562
 10
15.348438
 20
23.951562
 10
15.348438
 20
24.348437
 10
14.451562
 20
24.348437
 10
14.451562
 20
23.951562
 10
15.348438
 20
23.951562
 10
15.348438
 20
24.348437
  0
LWPOLYLINE
  8
0
 62
7
 90
9
 70
1
 10
14.900000
 20
23.698438
 10
14.451562
 20
23.698438
 10
14.451562
 20
23.301562
 10
15.348438
 20
23.301562
 10
15.348438
 20
23.698438
 10
14.451562
 20
23.698438
 10
14.451562
 20
23.301562
 10
15.348438
 20
23.301562
 10
15.348438
 20
23.698438
  0
LWPOLYLINE
  8
0
 62
7
 90
9
 70
1
 10
14.900000
 20
23.048438
 10
14.451562
 20
23.048438
 10
14.451562
 20
22.651563
 10
15.348438
 20
22.651563
 10
15.348438
 20
23.048438
 10
14.451562
 20
23.048438
 10
14.451562
 20
22.651563
 10
15.348438
 20
22.651563
 10
15.348438
 20
23.048438
  0
LWPOLYLINE
  8
0
 62
7
 90
9
 70
1
 10
36.563169
 20
17.088844
 10
36.563169
 20
34.741187
 10
-3.405794
 20
34.741187
 10
-3.405794
 20
-0.563500
 10
36.563169
 20
-0.563500
 10
36.563169
 20
34.741187
 10
-3.405794
 20
34.741187
 10
-3.405794
 20
-0.563500
 10
36.563169
 20
-0.563500
  0
ENDSEC
  0
EOF
